<svg width="225" height="42" viewBox="0 0 225 42" fill="none" xmlns="http://www.w3.org/2000/svg">
<path d="M197.322 0.208008C196.517 0.208008 195.865 0.86524 195.865 1.67566V11.9691H222.846L210.559 0.208957L197.322 0.208008Z" fill="#A1A1AA"/>
<path d="M223.833 15.0832C223.833 14.2709 223.185 13.6165 222.375 13.6165H212.164V40.8078L223.828 28.4197L223.833 15.0832Z" fill="#A1A1AA"/>
<path d="M209.07 41.7921C209.874 41.7921 210.526 41.1339 210.526 40.3216V30.032H183.544L195.833 41.7902L209.07 41.7921Z" fill="#A1A1AA"/>
<path d="M182.558 26.9188C182.558 27.7302 183.21 28.3912 184.017 28.3912H194.226V1.198L182.559 13.5823L182.558 26.9188Z" fill="#A1A1AA"/>
<path d="M58.8872 5.17193V17.7293H41.5273V5.17193L35.2046 5.16626V36.8286H41.5273V23.2263H58.8872V36.8286H65.2203V5.17193H58.8872Z" fill="#A1A1AA"/>
<path d="M143 5.17188V36.821H170.739L167.226 31.2492H149.341V23.2263H166.659V17.8597H149.341V10.6132H167.196L170.638 5.17188H143Z" fill="#A1A1AA"/>
<path d="M11.7021 5.16431C5.12509 5.16431 1.80322 9.19374 1.80322 15.0568V26.8756C1.80322 33.6606 6.08407 36.8286 11.6693 36.8286L31.5065 36.8267L27.8289 31.0393H12.8948C9.72213 31.0393 8.33993 29.8837 8.33993 26.3053V15.5826C8.33993 12.1234 9.50351 10.7739 12.9792 10.7739H27.9847L31.5158 5.16431H11.7021Z" fill="#A1A1AA"/>
<path d="M115.254 5.15673C111.455 5.15673 107.562 7.45751 107.562 13.3754V14.896C107.562 21.0655 111.308 23.4192 115.056 23.4353H128.211C129.577 23.4353 130.687 23.6641 130.687 25.9914L130.685 28.6799C130.651 30.7707 129.616 31.2492 128.164 31.2492H110.858L107.312 36.821H128.571C133.698 36.821 137.178 34.2507 137.178 28.3139V26.1323C137.178 20.3922 133.944 17.68 128.931 17.68H116.37C114.977 17.68 114.007 17.297 114.007 15.2185V13.0293C114.007 11.259 114.672 10.6132 116.295 10.6132L132.776 10.6065L136.221 5.14917L115.254 5.15673Z" fill="#A1A1AA"/>
<path d="M83.5895 5.17188L68.6929 36.8267H75.7335L78.6349 30.2894H94.8228L97.7148 36.8267H104.786L89.855 5.17188H83.5895ZM86.7133 11.7442L92.4374 24.901H81.0259L86.7133 11.7442Z" fill="#A1A1AA"/>
</svg>
