<svg width="25" height="25" viewBox="0 0 25 25" fill="none" xmlns="http://www.w3.org/2000/svg">
<path d="M12.5 3.13501C9.9791 3.13506 7.55619 4.11148 5.73968 5.8594C3.92317 7.60732 2.85426 9.99087 2.75723 12.5099C2.6602 15.0289 3.5426 17.4876 5.21928 19.3701C6.89595 21.2526 9.23657 22.4125 11.75 22.6064V15.1351H9.5C9.30109 15.1351 9.11032 15.0561 8.96967 14.9154C8.82902 14.7748 8.75 14.584 8.75 14.3851C8.75 14.1862 8.82902 13.9954 8.96967 13.8548C9.11032 13.7141 9.30109 13.6351 9.5 13.6351H11.75V11.3851C11.7509 10.5897 12.0673 9.82719 12.6297 9.26478C13.1921 8.70237 13.9546 8.38601 14.75 8.3851H16.25C16.4489 8.3851 16.6397 8.46412 16.7803 8.60477C16.921 8.74542 17 8.93619 17 9.1351C17 9.33401 16.921 9.52478 16.7803 9.66543C16.6397 9.80608 16.4489 9.8851 16.25 9.8851H14.75C14.3523 9.88555 13.971 10.0437 13.6898 10.3249C13.4086 10.6061 13.2505 10.9874 13.25 11.3851V13.6351H15.5C15.6989 13.6351 15.8897 13.7141 16.0303 13.8548C16.171 13.9954 16.25 14.1862 16.25 14.3851C16.25 14.584 16.171 14.7748 16.0303 14.9154C15.8897 15.0561 15.6989 15.1351 15.5 15.1351H13.25V22.6064C15.7634 22.4125 18.104 21.2526 19.7807 19.3701C21.4574 17.4876 22.3398 15.0289 22.2427 12.5099C22.1457 9.99088 21.0768 7.60733 19.2603 5.85941C17.4438 4.11149 15.0209 3.13507 12.5 3.13501Z" fill="#276EF1"/>
</svg>
