<svg width="129" height="42" viewBox="0 0 129 42" fill="none" xmlns="http://www.w3.org/2000/svg">
<g clip-path="url(#clip0_123_2120)">
<path d="M124.707 25.6679L128.257 28.0351C127.105 29.7326 124.348 32.6449 119.583 32.6449C113.665 32.6449 109.257 28.0663 109.257 22.2417C109.257 16.0433 113.711 11.8384 119.084 11.8384C124.488 11.8384 127.136 16.1367 127.993 18.4572L128.46 19.6408L114.537 25.4031C115.596 27.49 117.247 28.549 119.583 28.549C121.919 28.549 123.538 27.3966 124.707 25.6679ZM113.789 21.9146L123.087 18.0523C122.573 16.7597 121.047 15.8408 119.225 15.8408C116.904 15.8408 113.68 17.8966 113.789 21.9146Z" fill="#A1A1AA"/>
<path d="M102.545 1.23267H107.03V31.695H102.545V1.23267Z" fill="#A1A1AA"/>
<path d="M95.4746 12.6484H99.8041V31.1501C99.8041 38.8279 95.2721 41.9894 89.9147 41.9894C84.8688 41.9894 81.8319 38.5943 80.695 35.8378L84.6664 34.1869C85.3827 35.8845 87.1114 37.8935 89.9147 37.8935C93.3565 37.8935 95.4746 35.7599 95.4746 31.773V30.2779H95.3188C94.291 31.5238 92.3287 32.6451 89.8368 32.6451C84.6352 32.6451 79.8696 28.1132 79.8696 22.273C79.8696 16.4017 84.6352 11.823 89.8368 11.823C92.3131 11.823 94.291 12.9287 95.3188 14.1435H95.4746V12.6484ZM95.786 22.273C95.786 18.5976 93.3409 15.9189 90.2262 15.9189C87.0803 15.9189 84.4327 18.5976 84.4327 22.273C84.4327 25.9017 87.0803 28.5337 90.2262 28.5337C93.3409 28.5492 95.786 25.9017 95.786 22.273Z" fill="#A1A1AA"/>
<path d="M55.2475 22.195C55.2475 28.1909 50.5753 32.5983 44.8442 32.5983C39.113 32.5983 34.4409 28.1753 34.4409 22.195C34.4409 16.1679 39.113 11.7761 44.8442 11.7761C50.5753 11.7761 55.2475 16.1679 55.2475 22.195ZM50.6999 22.195C50.6999 18.4573 47.9901 15.8876 44.8442 15.8876C41.6983 15.8876 38.9885 18.4573 38.9885 22.195C38.9885 25.9015 41.6983 28.5024 44.8442 28.5024C47.9901 28.5024 50.6999 25.9015 50.6999 22.195Z" fill="#A1A1AA"/>
<path d="M77.9696 22.2417C77.9696 28.2376 73.2975 32.6449 67.5664 32.6449C61.8352 32.6449 57.1631 28.2376 57.1631 22.2417C57.1631 16.2146 61.8352 11.8384 67.5664 11.8384C73.2975 11.8384 77.9696 16.199 77.9696 22.2417ZM73.4065 22.2417C73.4065 18.504 70.6967 15.9343 67.5508 15.9343C64.4049 15.9343 61.6951 18.504 61.6951 22.2417C61.6951 25.9482 64.4049 28.549 67.5508 28.549C70.7123 28.549 73.4065 25.9326 73.4065 22.2417Z" fill="#A1A1AA"/>
<path d="M17.3409 28.0819C10.8155 28.0819 5.70726 22.818 5.70726 16.2926C5.70726 9.76716 10.8155 4.50322 17.3409 4.50322C20.8605 4.50322 23.4302 5.88929 25.3302 7.6647L28.4605 4.53437C25.813 1.99585 22.2778 0.0646973 17.3409 0.0646973C8.40153 0.0646973 0.879395 7.35322 0.879395 16.2926C0.879395 25.2319 8.40153 32.5204 17.3409 32.5204C22.1687 32.5204 25.813 30.9319 28.663 27.9729C31.5909 25.045 32.4942 20.9336 32.4942 17.6008C32.4942 16.5573 32.3696 15.4827 32.2294 14.6885H17.3409V19.018H27.9466C27.6351 21.7278 26.7786 23.5811 25.5171 24.8426C23.9909 26.3844 21.5769 28.0819 17.3409 28.0819Z" fill="#A1A1AA"/>
</g>
<defs>
<clipPath id="clip0_123_2120">
<rect width="128" height="42" fill="white" transform="translate(0.693359)"/>
</clipPath>
</defs>
</svg>
