<svg width="25" height="25" viewBox="0 0 25 25" fill="none" xmlns="http://www.w3.org/2000/svg">
<path d="M12.5 15.885C14.1569 15.885 15.5 14.5419 15.5 12.885C15.5 11.2282 14.1569 9.88501 12.5 9.88501C10.8431 9.88501 9.5 11.2282 9.5 12.885C9.5 14.5419 10.8431 15.885 12.5 15.885Z" fill="#276EF1"/>
<path d="M16.625 3.51001H8.375C6.9831 3.51159 5.64865 4.06522 4.66443 5.04944C3.68021 6.03366 3.12658 7.36811 3.125 8.76001V17.01C3.12658 18.4019 3.68021 19.7364 4.66443 20.7206C5.64865 21.7048 6.9831 22.2584 8.375 22.26H16.625C18.0169 22.2584 19.3513 21.7048 20.3356 20.7206C21.3198 19.7364 21.8734 18.4019 21.875 17.01V8.76001C21.8734 7.36811 21.3198 6.03366 20.3356 5.04944C19.3513 4.06522 18.0169 3.51159 16.625 3.51001ZM12.5 17.385C11.61 17.385 10.74 17.1211 9.99993 16.6266C9.25991 16.1322 8.68314 15.4294 8.34254 14.6071C8.00195 13.7848 7.91283 12.88 8.08647 12.0071C8.2601 11.1342 8.68868 10.3324 9.31802 9.70303C9.94736 9.07369 10.7492 8.64511 11.6221 8.47148C12.495 8.29784 13.3998 8.38696 14.2221 8.72755C15.0443 9.06815 15.7471 9.64492 16.2416 10.3849C16.7361 11.125 17 11.995 17 12.885C16.9987 14.0781 16.5241 15.2219 15.6805 16.0655C14.8369 16.9091 13.6931 17.3837 12.5 17.385ZM17.375 9.13501C17.1525 9.13501 16.935 9.06903 16.75 8.94541C16.565 8.8218 16.4208 8.6461 16.3356 8.44053C16.2505 8.23496 16.2282 8.00876 16.2716 7.79053C16.315 7.5723 16.4222 7.37185 16.5795 7.21451C16.7368 7.05718 16.9373 6.95003 17.1555 6.90663C17.3738 6.86322 17.6 6.8855 17.8055 6.97065C18.0111 7.05579 18.1868 7.19999 18.3104 7.38499C18.434 7.57 18.5 7.78751 18.5 8.01001C18.5 8.30838 18.3815 8.59453 18.1705 8.8055C17.9595 9.01648 17.6734 9.13501 17.375 9.13501Z" fill="#276EF1"/>
</svg>
