<svg width="159" height="42" viewBox="0 0 159 42" fill="none" xmlns="http://www.w3.org/2000/svg">
<g clip-path="url(#clip0_123_2128)">
<path d="M59.6891 8.5896H50.9849C50.6967 8.58942 50.418 8.69216 50.1989 8.8793C49.9798 9.06644 49.8347 9.32569 49.7898 9.61033L46.2694 31.9301C46.2533 32.0337 46.2597 32.1396 46.2884 32.2404C46.317 32.3412 46.3672 32.4347 46.4354 32.5143C46.5036 32.5939 46.5883 32.6577 46.6835 32.7015C46.7788 32.7452 46.8824 32.7678 46.9873 32.7676H51.1427C51.4311 32.7677 51.71 32.6648 51.9291 32.4774C52.1482 32.29 52.2932 32.0305 52.3378 31.7456L53.2873 25.7256C53.3318 25.4409 53.4766 25.1816 53.6955 24.9942C53.9144 24.8068 54.193 24.7038 54.4811 24.7036H57.2365C62.9702 24.7036 66.2793 21.9291 67.1434 16.4309C67.5329 14.0254 67.16 12.1354 66.0336 10.8118C64.7965 9.35833 62.6023 8.5896 59.6891 8.5896ZM60.6933 16.7414C60.2173 19.8647 57.8309 19.8647 55.5234 19.8647H54.21L55.1314 14.0318C55.1584 13.8611 55.2454 13.7057 55.3768 13.5935C55.5081 13.4813 55.6752 13.4196 55.848 13.4196H56.45C58.0218 13.4196 59.5045 13.4196 60.2707 14.3156C60.7276 14.8501 60.8676 15.6443 60.6933 16.7414ZM85.7074 16.6409H81.5393C81.3665 16.6409 81.1994 16.7025 81.068 16.8148C80.9367 16.927 80.8497 17.0824 80.8227 17.2531L80.6382 18.4189L80.3467 17.9963C79.4444 16.6867 77.4322 16.2489 75.4238 16.2489C70.8178 16.2489 66.8838 19.7374 66.1176 24.6311C65.7193 27.0721 66.2856 29.4063 67.6703 31.0341C68.9405 32.5309 70.758 33.1545 72.9203 33.1545C76.6316 33.1545 78.6896 30.7681 78.6896 30.7681L78.5038 31.9263C78.4872 32.0299 78.4933 32.1358 78.5216 32.2368C78.55 32.3377 78.5998 32.4314 78.6678 32.5112C78.7358 32.591 78.8203 32.6552 78.9155 32.6992C79.0106 32.7433 79.1142 32.7662 79.2191 32.7663H82.9736C83.262 32.7665 83.5409 32.6635 83.76 32.4761C83.9791 32.2887 84.1241 32.0292 84.1687 31.7443L86.4214 17.4783C86.438 17.375 86.432 17.2693 86.4037 17.1686C86.3755 17.0678 86.3257 16.9744 86.2578 16.8948C86.1899 16.8151 86.1055 16.7512 86.0105 16.7074C85.9155 16.6635 85.8121 16.6408 85.7074 16.6409ZM79.8974 24.7532C79.4953 27.1345 77.6053 28.7331 75.1947 28.7331C73.9844 28.7331 73.0171 28.3449 72.396 27.6092C71.78 26.8787 71.5458 25.8389 71.7418 24.6807C72.1173 22.3198 74.0391 20.6691 76.4127 20.6691C77.5964 20.6691 78.5585 21.0623 79.1923 21.8043C79.8274 22.554 80.0794 23.6001 79.8974 24.7532ZM107.906 16.6409H103.718C103.52 16.6412 103.326 16.6897 103.151 16.7822C102.977 16.8747 102.827 17.0083 102.716 17.1716L96.9393 25.6811L94.4905 17.5038C94.4154 17.2544 94.2619 17.0358 94.0529 16.8804C93.8438 16.725 93.5903 16.641 93.3298 16.6409H89.2138C89.0983 16.6406 88.9843 16.6679 88.8815 16.7205C88.7786 16.7731 88.6898 16.8495 88.6224 16.9434C88.5551 17.0373 88.5111 17.1459 88.4942 17.2602C88.4773 17.3745 88.488 17.4912 88.5252 17.6005L93.1389 31.1398L88.8014 37.2629C88.7243 37.3714 88.6786 37.4991 88.6693 37.6319C88.6599 37.7648 88.6873 37.8976 88.7484 38.0159C88.8096 38.1342 88.902 38.2334 89.0158 38.3026C89.1295 38.3718 89.2601 38.4084 89.3933 38.4083H93.5767C93.772 38.4086 93.9645 38.3615 94.1376 38.2711C94.3108 38.1806 94.4594 38.0495 94.5707 37.8891L108.502 17.78C108.577 17.6712 108.622 17.5438 108.63 17.4116C108.638 17.2794 108.61 17.1475 108.549 17.0302C108.488 16.9128 108.395 16.8145 108.282 16.7459C108.169 16.6772 108.039 16.6409 107.906 16.6409Z" fill="#A1A1AA"/>
<path d="M121.774 8.58965H113.068C112.78 8.58977 112.502 8.69265 112.283 8.87976C112.064 9.06688 111.919 9.32596 111.874 9.61038L108.354 31.9302C108.338 32.0336 108.344 32.1393 108.372 32.24C108.401 32.3408 108.451 32.4342 108.519 32.5138C108.587 32.5934 108.671 32.6573 108.766 32.7011C108.861 32.745 108.965 32.7676 109.069 32.7676H113.537C113.738 32.7674 113.933 32.6952 114.086 32.564C114.239 32.4329 114.34 32.2515 114.372 32.0524L115.371 25.7256C115.415 25.441 115.56 25.1816 115.779 24.9942C115.998 24.8069 116.276 24.7038 116.564 24.7036H119.319C125.054 24.7036 128.361 21.9291 129.227 16.4309C129.618 14.0255 129.242 12.1355 128.116 10.8118C126.88 9.35838 124.687 8.58965 121.774 8.58965ZM122.778 16.7415C122.303 19.8647 119.917 19.8647 117.608 19.8647H116.296L117.219 14.0318C117.245 13.8612 117.332 13.7056 117.463 13.5933C117.594 13.4811 117.761 13.4194 117.934 13.4197H118.536C120.106 13.4197 121.59 13.4197 122.357 14.3157C122.814 14.8502 122.952 15.6444 122.778 16.7415ZM147.791 16.6409H143.625C143.452 16.6404 143.285 16.702 143.154 16.8143C143.023 16.9266 142.936 17.0823 142.91 17.2531L142.725 18.4189L142.433 17.9964C141.53 16.6867 139.519 16.2489 137.511 16.2489C132.905 16.2489 128.972 19.7375 128.206 24.6311C127.809 27.0722 128.373 29.4064 129.758 31.0342C131.03 32.5309 132.845 33.1546 135.008 33.1546C138.719 33.1546 140.777 30.7682 140.777 30.7682L140.591 31.9264C140.574 32.0301 140.581 32.1363 140.609 32.2374C140.638 32.3386 140.688 32.4323 140.756 32.5122C140.824 32.5921 140.909 32.6562 141.004 32.7001C141.1 32.744 141.204 32.7666 141.309 32.7664H145.062C145.35 32.7662 145.629 32.6631 145.848 32.4758C146.067 32.2884 146.211 32.029 146.256 31.7444L148.51 17.4784C148.526 17.3747 148.519 17.2689 148.49 17.168C148.462 17.0672 148.411 16.9738 148.343 16.8942C148.275 16.8147 148.19 16.7508 148.095 16.7071C147.999 16.6634 147.896 16.6408 147.791 16.6409ZM141.981 24.7533C141.581 27.1346 139.689 28.7331 137.278 28.7331C136.07 28.7331 135.1 28.3449 134.479 27.6093C133.863 26.8787 133.632 25.8389 133.825 24.6807C134.203 22.3198 136.122 20.6691 138.496 20.6691C139.68 20.6691 140.642 21.0624 141.276 21.8044C141.913 22.554 142.165 23.6002 141.981 24.7533ZM152.705 9.20183L149.132 31.9302C149.116 32.0336 149.122 32.1393 149.151 32.24C149.179 32.3408 149.229 32.4342 149.297 32.5138C149.365 32.5934 149.449 32.6573 149.544 32.7011C149.639 32.745 149.743 32.7676 149.848 32.7676H153.439C154.036 32.7676 154.543 32.3349 154.634 31.7456L158.157 9.42711C158.174 9.32365 158.167 9.21788 158.139 9.11707C158.111 9.01625 158.061 8.92279 157.993 8.84309C157.925 8.7634 157.84 8.69937 157.745 8.6554C157.65 8.61143 157.547 8.58856 157.442 8.58838H153.42C153.247 8.58899 153.081 8.65106 152.95 8.76347C152.819 8.87588 152.732 9.03128 152.705 9.20183Z" fill="#A1A1AA"/>
<path d="M10.1229 37.105L10.7885 32.877L9.30577 32.8427H2.22559L7.14595 1.64432C7.1606 1.54899 7.20901 1.46211 7.28237 1.3995C7.35573 1.33688 7.44914 1.30272 7.54559 1.30323H19.4838C23.447 1.30323 26.1821 2.12796 27.6101 3.75577C28.2796 4.51941 28.7059 5.31741 28.9121 6.19559C29.1285 7.11705 29.1323 8.21795 28.921 9.56068L28.9058 9.65868V10.519L29.5752 10.8983C30.0863 11.1572 30.5457 11.5075 30.9307 11.9318C31.5034 12.5847 31.8738 13.4145 32.0303 14.3983C32.192 15.4101 32.1385 16.6141 31.8738 17.9772C31.5683 19.5452 31.0745 20.9109 30.4076 22.0283C29.8192 23.0294 29.028 23.8964 28.0849 24.5738C27.199 25.2025 26.1465 25.6798 24.9565 25.9852C23.8034 26.2856 22.4887 26.437 21.0467 26.437H20.1176C19.4532 26.437 18.808 26.6763 18.3014 27.1052C17.7956 27.5387 17.46 28.1377 17.3545 28.7954L17.2845 29.176L16.1085 36.6278L16.055 36.9014C16.041 36.9879 16.0169 37.0312 15.9812 37.0605C15.9467 37.0887 15.9036 37.1044 15.859 37.105H10.1229Z" fill="#A1A1AA"/>
<path d="M30.2087 9.75806C30.1731 9.98587 30.1323 10.2188 30.0865 10.4581C28.5122 18.5411 23.126 21.3335 16.2469 21.3335H12.7443C11.9031 21.3335 11.1942 21.9444 11.0631 22.7742L9.2698 34.1473L8.76198 37.3711C8.74175 37.499 8.74948 37.6298 8.78462 37.7544C8.81976 37.879 8.8815 37.9945 8.96556 38.0929C9.04963 38.1914 9.15403 38.2705 9.27159 38.3247C9.38915 38.379 9.51706 38.4071 9.64653 38.4071H15.8587C16.5943 38.4071 17.2193 37.8726 17.3351 37.1471L17.3962 36.8315L18.5658 29.409L18.6409 29.0017C18.7554 28.2737 19.3816 27.7391 20.1173 27.7391H21.0463C27.0651 27.7391 31.7767 25.2955 33.1538 18.2242C33.7291 15.2702 33.4313 12.8037 31.9091 11.069C31.4266 10.5323 30.8504 10.0881 30.2087 9.75806Z" fill="#A1A1AA"/>
<path d="M28.5617 9.10119C28.059 8.95577 27.5476 8.84227 27.0306 8.76137C26.009 8.60437 24.9765 8.52904 23.943 8.5361H14.5859C14.2298 8.53582 13.8853 8.66295 13.6148 8.89451C13.3443 9.12607 13.1655 9.44677 13.1108 9.79864L11.1203 22.4063L11.063 22.7741C11.125 22.3727 11.3286 22.0068 11.637 21.7426C11.9454 21.4783 12.3381 21.3332 12.7443 21.3334H16.2468C23.1259 21.3334 28.5121 18.5397 30.0864 10.4579C30.1335 10.2186 30.173 9.98573 30.2086 9.75792C29.7932 9.54006 29.3602 9.35742 28.9143 9.21192C28.7973 9.17312 28.6798 9.13621 28.5617 9.10119Z" fill="#A1A1AA"/>
<path d="M13.1109 9.79873C13.1651 9.44675 13.3438 9.1259 13.6145 8.89446C13.8851 8.66302 14.2298 8.53635 14.586 8.53746H23.9431C25.0516 8.53746 26.0863 8.61 27.0307 8.76273C27.6697 8.86316 28.3 9.01338 28.9156 9.212C29.3801 9.366 29.8116 9.548 30.21 9.758C30.6783 6.77091 30.2062 4.73709 28.5911 2.89545C26.8105 0.868 23.5969 0 19.4847 0H7.54652C6.70652 0 5.98997 0.610909 5.86016 1.442L0.887612 32.9611C0.864451 33.1074 0.873263 33.257 0.913442 33.3997C0.953622 33.5423 1.02421 33.6745 1.12037 33.7872C1.21652 33.8999 1.33594 33.9905 1.47043 34.0526C1.60492 34.1148 1.75127 34.1471 1.89943 34.1473H9.26979L11.1203 22.4064L13.1109 9.79873Z" fill="#A1A1AA"/>
</g>
<defs>
<clipPath id="clip0_123_2128">
<rect width="157.818" height="42" fill="white" transform="translate(0.875)"/>
</clipPath>
</defs>
</svg>
