<svg width="26" height="26" viewBox="0 0 26 26" fill="none" xmlns="http://www.w3.org/2000/svg">
<path d="M22.0952 13.385C22.6776 12.8733 23.0489 12.1632 23.1367 11.3928C23.2245 10.6225 23.0226 9.84702 22.5703 9.2173C22.118 8.58759 21.4476 8.14865 20.6895 7.98589C19.9315 7.82313 19.14 7.94819 18.469 8.33673V6.3538C18.4694 5.71883 18.2763 5.09882 17.9153 4.57643C17.5544 4.05404 17.0427 3.65409 16.4486 3.42991C15.8546 3.20573 15.2063 3.16797 14.5902 3.32166C13.9741 3.47534 13.4195 3.81318 13.0003 4.29012C12.4885 3.70768 11.7784 3.33643 11.0081 3.24862C10.2377 3.1608 9.46225 3.36269 8.83253 3.81502C8.20282 4.26734 7.76388 4.93774 7.60112 5.6958C7.43836 6.45385 7.56342 7.24535 7.95197 7.9163H5.96904C5.33406 7.91589 4.71405 8.10904 4.19166 8.47001C3.66927 8.83098 3.26933 9.34261 3.04515 9.93669C2.82097 10.5308 2.78321 11.1791 2.9369 11.7952C3.09059 12.4113 3.42843 12.9659 3.90538 13.385C3.32293 13.8968 2.95168 14.6069 2.86386 15.3773C2.77603 16.1476 2.97792 16.9231 3.43024 17.5528C3.88257 18.1825 4.55297 18.6215 5.31103 18.7842C6.06909 18.947 6.86059 18.8219 7.53154 18.4334V20.4163C7.53113 21.0513 7.72428 21.6713 8.08525 22.1937C8.44622 22.7161 8.95785 23.116 9.55193 23.3402C10.146 23.5644 10.7943 23.6021 11.4104 23.4484C12.0265 23.2948 12.5811 22.9569 13.0003 22.48C13.512 23.0624 14.2222 23.4337 14.9925 23.5215C15.7629 23.6093 16.5383 23.4074 17.168 22.9551C17.7978 22.5028 18.2367 21.8324 18.3995 21.0743C18.5622 20.3162 18.4372 19.5247 18.0486 18.8538H20.0315C20.6665 18.8542 21.2865 18.6611 21.8089 18.3001C22.3313 17.9391 22.7312 17.4275 22.9554 16.8334C23.1796 16.2393 23.2174 15.591 23.0637 14.9749C22.91 14.3588 22.5721 13.8042 22.0952 13.385ZM9.09404 6.3538C9.09404 5.9394 9.25866 5.54197 9.55168 5.24894C9.84471 4.95592 10.2421 4.7913 10.6565 4.7913C11.0709 4.7913 11.4684 4.95592 11.7614 5.24894C12.0544 5.54197 12.219 5.9394 12.219 6.3538V7.9163H10.6565C10.2423 7.91582 9.84513 7.75105 9.55221 7.45813C9.25928 7.16521 9.09451 6.76805 9.09404 6.3538ZM4.40654 11.0413C4.40701 10.627 4.57178 10.2299 4.86471 9.93697C5.15763 9.64404 5.55478 9.47927 5.96904 9.4788H10.6565C11.0708 9.47927 11.4679 9.64404 11.7609 9.93697C12.0538 10.2299 12.2186 10.627 12.219 11.0413V12.6038H5.96904C5.55478 12.6033 5.15763 12.4386 4.86471 12.1456C4.57178 11.8527 4.40701 11.4556 4.40654 11.0413ZM16.9065 20.4163C16.9065 20.8307 16.7419 21.2281 16.4489 21.5212C16.1559 21.8142 15.7584 21.9788 15.344 21.9788C14.9296 21.9788 14.5322 21.8142 14.2392 21.5212C13.9462 21.2281 13.7815 20.8307 13.7815 20.4163V18.8538H15.344C15.7583 18.8543 16.1554 19.019 16.4484 19.312C16.7413 19.6049 16.9061 20.002 16.9065 20.4163ZM20.0315 17.2913H15.344C14.9298 17.2908 14.5326 17.1261 14.2397 16.8331C13.9468 16.5402 13.782 16.1431 13.7815 15.7288V14.1663H20.0315C20.4459 14.1663 20.8434 14.3309 21.1364 14.6239C21.4294 14.917 21.594 15.3144 21.594 15.7288C21.594 16.1432 21.4294 16.5406 21.1364 16.8337C20.8434 17.1267 20.4459 17.2913 20.0315 17.2913Z" fill="#276EF1"/>
</svg>
