<svg width="169" height="42" viewBox="0 0 169 42" fill="none" xmlns="http://www.w3.org/2000/svg">
<g clip-path="url(#clip0_123_2141)">
<path d="M1.78369 9.17592C1.78369 9.17592 5.91941 26.1541 6.57946 28.9099C7.34985 32.1265 8.73796 33.3103 12.7401 32.5119L15.3226 21.9856C15.9771 19.3709 16.4161 17.5068 16.8368 14.847H16.9109C17.2065 17.5329 17.6274 19.3787 18.1661 21.9947C18.1661 21.9947 19.2173 26.7734 19.7556 29.2833C20.2954 31.7924 21.7975 33.3737 25.7177 32.5128L31.871 9.17771H26.9029L24.8022 19.2666C24.2374 22.2033 23.7249 24.498 23.3298 27.1845H23.2597C22.9006 24.5248 22.4438 22.321 21.8696 19.4598L19.6822 9.17771H14.506L12.1663 19.2007C11.5034 22.2464 10.8834 24.7059 10.4892 27.3013H10.4178C10.014 24.8571 9.47628 21.766 8.89397 18.8177C8.89397 18.8177 7.5039 11.6488 7.01618 9.17771L1.78418 9.17838L1.78369 9.17592ZM49.144 9.17592V32.511H53.874V27.5559V9.1748H49.144V9.17592ZM115.762 9.17592V26.3906C115.762 28.7641 116.208 30.427 117.161 31.4429C117.995 32.3314 119.368 32.9067 121.012 32.9067C122.411 32.9067 123.787 32.641 124.435 32.399L124.374 28.6958C123.892 28.8148 123.337 28.91 122.577 28.91C120.966 28.91 120.426 27.8762 120.426 25.7451V19.1588H124.545V14.6941H120.426V9.17599H115.762L115.762 9.17592ZM38.5734 14.5855C35.6338 14.5855 33.3004 15.4124 32.0284 16.1488L32.9593 19.3421C34.1233 18.6068 35.9768 17.9982 37.7318 17.9982C40.6375 17.9907 41.1126 19.6442 41.1126 20.7047V20.9555C34.7811 20.9459 30.7818 23.1409 30.7818 27.615C30.7818 30.3467 32.8177 32.9066 36.3578 32.9066C38.537 32.9066 40.3596 32.0359 41.4518 30.6408H41.5589C41.5589 30.6408 42.2822 33.6706 46.2671 32.512C46.0578 31.251 45.9898 29.9065 45.9898 28.2872V22.0533C45.9898 18.0801 44.2964 14.5856 38.5734 14.5856L38.5734 14.5855ZM66.8678 14.5855C63.908 14.5855 62.5779 16.0882 61.7714 17.3632H61.7013V14.9812H57.1873V32.5122H61.9425V22.231C61.9425 21.749 61.9974 21.2393 62.1654 20.796C62.5593 19.7608 63.5206 18.55 65.0554 18.55C66.9741 18.55 67.872 20.1751 67.872 22.5205V32.512H72.622V22.1064C72.622 21.6463 72.685 21.0922 72.8201 20.6853C73.2107 19.5079 74.247 18.5498 75.6737 18.5498C77.6188 18.5498 78.5524 20.1467 78.5524 22.9064V32.512H83.3058V22.1869C83.3058 16.7416 80.5459 14.5856 77.4304 14.5856C76.0507 14.5856 74.9617 14.9322 73.9771 15.5378C73.1494 16.0466 72.4086 16.7694 71.761 17.7213H71.6909C70.9374 15.832 69.1697 14.5856 66.867 14.5856L66.8678 14.5855ZM92.9799 14.5855C90.0411 14.5855 87.708 15.4124 86.435 16.1488L87.3671 19.3421C88.5301 18.6068 90.3847 17.9982 92.1388 17.9982C95.0425 17.9907 95.5186 19.6442 95.5186 20.7047V20.9555C89.1881 20.9459 85.1884 23.1409 85.1884 27.615C85.1884 30.3467 87.2253 32.9066 90.7672 32.9066C92.9447 32.9066 94.7679 32.0359 95.8581 30.6408H95.9657C95.9657 30.6408 96.6889 33.6706 100.674 32.512C100.465 31.251 100.397 29.9065 100.397 28.2872V22.0533C100.397 18.0801 98.7036 14.5856 92.9799 14.5856L92.9799 14.5855ZM112.727 14.5855C110.906 14.5855 108.834 15.763 107.965 18.2873H107.832V14.981H103.551V32.5119H108.431V23.535C108.431 23.0507 108.461 22.6285 108.537 22.2413C108.898 20.3608 110.334 19.1587 112.394 19.1587C112.96 19.1587 113.365 19.2201 113.803 19.2835V14.6939C113.435 14.6196 113.184 14.5853 112.727 14.5853L112.727 14.5855ZM41.2653 24.062V26.249C41.2653 26.5725 41.2372 26.9063 41.1477 27.1982C40.7817 28.4128 39.5257 29.4392 37.9556 29.4392C36.6466 29.4392 35.6068 28.6949 35.6068 27.1204C35.6068 24.7121 38.253 24.0464 41.2654 24.062H41.2653ZM95.6719 24.062V26.249C95.6719 26.5725 95.6432 26.9063 95.5543 27.1982C95.1882 28.4128 93.9327 29.4392 92.3626 29.4392C91.0534 29.4392 90.0133 28.6949 90.0133 27.1204C90.0133 24.7121 92.6596 24.0464 95.672 24.062H95.6719Z" fill="#A1A1AA"/>
<path d="M150.12 0.736816C148.593 0.736816 147.379 1.59114 147.379 2.63118L148.306 13.1515C148.409 13.7853 149.184 14.2742 150.121 14.2742C151.059 14.273 151.832 13.7845 151.936 13.1515L152.868 2.63118C152.868 1.59123 151.651 0.736906 150.122 0.736906L150.12 0.736816ZM135.007 9.17572C134.214 9.19456 133.314 9.79588 132.741 10.7909C131.975 12.1159 132.11 13.5966 133.007 14.1161L142.563 18.5748C143.16 18.7973 143.971 18.3725 144.441 17.5615C144.441 17.5614 144.441 17.5612 144.441 17.5611C144.913 16.7461 144.876 15.8298 144.379 15.4233L135.748 9.35818C135.524 9.2281 135.272 9.16957 135.007 9.17585L135.007 9.17572ZM165.232 9.17572C164.968 9.16944 164.716 9.22797 164.493 9.35805L155.86 15.4232C155.366 15.8296 155.33 16.746 155.799 17.561L155.8 17.5614C156.271 18.3724 157.079 18.7971 157.676 18.5747L167.237 14.1161C168.137 13.5967 168.266 12.1161 167.505 10.791C166.93 9.79595 166.028 9.19466 165.235 9.17581L165.232 9.17572ZM142.92 23.0558C142.797 23.0541 142.677 23.0732 142.565 23.1155L133.008 27.5689C132.112 28.0907 131.976 29.5719 132.742 30.8983C133.506 32.2207 134.852 32.8493 135.749 32.3308L144.381 26.2703C144.877 25.8589 144.914 24.9428 144.442 24.1286L144.446 24.1304C144.065 23.4672 143.456 23.063 142.921 23.0557L142.92 23.0558ZM157.323 23.0558C156.788 23.0631 156.181 23.4674 155.798 24.1306L155.802 24.1288C155.332 24.9429 155.369 25.859 155.862 26.2704L164.495 32.3309C165.39 32.8495 166.737 32.2208 167.505 30.8985C168.266 29.572 168.137 28.0908 167.236 27.5691L157.678 23.1157C157.566 23.0734 157.447 23.0542 157.323 23.0559L157.323 23.0558ZM150.118 27.4158C149.183 27.4169 148.41 27.9038 148.308 28.536L147.38 39.0558C147.38 40.0976 148.594 40.9502 150.121 40.9502C151.651 40.9502 152.867 40.0976 152.867 39.0558L151.937 28.536C151.833 27.9038 151.06 27.417 150.122 27.4158H150.118H150.118Z" fill="#A1A1AA"/>
</g>
<defs>
<clipPath id="clip0_123_2141">
<rect width="168" height="42" fill="white" transform="translate(0.943359)"/>
</clipPath>
</defs>
</svg>
