<svg width="26" height="26" viewBox="0 0 26 26" fill="none" xmlns="http://www.w3.org/2000/svg">
<path d="M24.4903 8.46867L21.5446 11.4144C20.9565 18.2387 15.2013 23.5413 8.31284 23.5413C6.89444 23.5413 5.72552 23.3164 4.83846 22.8728C4.12259 22.5149 3.82933 22.1307 3.75657 22.0215C3.69129 21.9236 3.64897 21.8122 3.63278 21.6956C3.61659 21.579 3.62694 21.4603 3.66307 21.3483C3.69919 21.2363 3.76015 21.1339 3.8414 21.0488C3.92265 20.9636 4.02208 20.8979 4.13227 20.8566C4.1574 20.8471 6.46119 19.9623 7.95016 18.2776C7.02401 17.6182 6.20889 16.8153 5.53546 15.8992C4.19678 14.0825 2.78096 10.9274 3.63793 6.21399C3.66344 6.07372 3.72684 5.9431 3.82128 5.83628C3.91571 5.72947 4.03758 5.65053 4.17367 5.60803C4.30975 5.56552 4.45488 5.56106 4.59332 5.59514C4.73177 5.62921 4.85824 5.70052 4.95906 5.80134C4.99348 5.83567 8.24442 9.04068 12.2186 10.0759L12.2191 9.47837C12.2275 8.22753 12.7322 7.0312 13.6224 6.15236C14.5125 5.27351 15.7152 4.78406 16.966 4.79159C17.7786 4.80284 18.5744 5.02467 19.2756 5.4354C19.9769 5.84612 20.5596 6.43171 20.9669 7.13496L23.9378 7.13501C24.0924 7.13501 24.2434 7.18082 24.3719 7.26667C24.5004 7.35251 24.6005 7.47452 24.6596 7.61727C24.7188 7.76002 24.7342 7.9171 24.7041 8.06865C24.674 8.2202 24.5996 8.35941 24.4903 8.46867Z" fill="#276EF1"/>
</svg>
